<?xml version="1.0" encoding="UTF-8" standalone="no"?>
<svg
   xmlns:dc="http://purl.org/dc/elements/1.1/"
   xmlns:cc="http://creativecommons.org/ns#"
   xmlns:rdf="http://www.w3.org/1999/02/22-rdf-syntax-ns#"
   xmlns:svg="http://www.w3.org/2000/svg"
   xmlns="http://www.w3.org/2000/svg"
   viewBox="0 0 9449.333 3024"
   height="3024"
   width="9449.333"
   xml:space="preserve"
   id="svg2"
   version="1.1"><metadata
     id="metadata8"><rdf:RDF><cc:Work
         rdf:about=""><dc:format>image/svg+xml</dc:format><dc:type
           rdf:resource="http://purl.org/dc/dcmitype/StillImage" /></cc:Work></rdf:RDF></metadata><defs
     id="defs6"><clipPath
       id="clipPath18"
       clipPathUnits="userSpaceOnUse"><path
         id="path16"
         d="M 0,2268 H 7087 V 0 H 0 Z" /></clipPath></defs><g
     transform="matrix(1.3333333,0,0,-1.3333333,0,3024)"
     id="g10"><g
       id="g12"><g
         clip-path="url(#clipPath18)"
         id="g14"><g
           transform="translate(2154.3625,932.7184)"
           id="g20"><path
             id="path22"
             style="fill:#f86b28;fill-opacity:1;fill-rule:nonzero;stroke:none"
             d="m 0,0 c -2.027,-3.775 -4.098,-7.527 -6.074,-11.329 -54.22,-104.344 -108.505,-208.654 -162.522,-313.102 -5.106,-9.873 -12.379,-14.002 -23.099,-13.993 -88.664,0.081 -177.328,0.041 -265.992,0.06 -1.99,10e-4 -4.016,0.072 -5.966,0.434 -11.878,2.204 -17.114,10.002 -14.265,21.757 1.724,7.113 4.035,14.084 6.126,21.106 65.963,221.478 131.94,442.953 197.895,664.434 38.014,127.652 75.993,255.314 113.986,382.972 4.271,14.353 8.354,17.514 23.659,17.525 68.998,0.047 137.997,-0.254 206.992,0.209 17.119,0.114 25.742,-8.421 19.774,-27.531 C 50.109,613.18 10.309,483.63 -29.664,354.133 c -1.138,-3.688 -2.025,-7.455 -1.361,-11.785 1.676,3.179 3.427,6.32 5.016,9.541 66.028,133.826 132.04,267.661 198.063,401.49 1.326,2.688 2.553,5.453 4.167,7.963 3.027,4.705 7.225,7.81 13.023,8.167 3.322,0.205 6.654,0.362 9.982,0.363 64.331,0.021 128.662,0.019 192.993,0.003 3.33,-10e-4 6.688,0.078 9.984,-0.302 11.078,-1.278 17.182,-9.657 14.633,-20.447 -1.53,-6.47 -3.707,-12.791 -5.704,-19.145 -35.647,-113.403 -71.316,-226.8 -106.953,-340.206 -1.159,-3.69 -2.033,-7.471 -1.767,-11.661 10.407,21.148 20.517,42.447 31.27,63.418 53.651,104.63 107.557,209.13 161.097,313.818 5.418,10.594 12.828,14.746 24.582,14.692 68.663,-0.317 137.328,-0.154 205.993,-0.155 1.333,0 2.668,0.034 3.999,-0.031 16.037,-0.786 22.788,-11.328 16.088,-25.878 C 739.314,730.67 732.57,717.646 726.083,704.504 634.088,518.119 542.07,331.744 450.098,145.347 374.191,-8.491 298.339,-162.356 222.459,-316.208 c -1.473,-2.988 -3.219,-5.866 -4.421,-8.958 -3.643,-9.367 -10.974,-12.841 -20.373,-13.195 -1.998,-0.075 -4,-0.023 -6,-0.023 -85.997,-10e-4 -171.994,-0.009 -257.992,0.027 -3.646,0.002 -7.373,0 -10.925,0.699 -11.252,2.215 -16.388,9.949 -13.319,21.181 7.547,27.617 15.346,55.17 23.41,82.641 21.85,74.444 43.892,148.831 65.852,223.243 0.932,3.157 1.799,6.334 2.696,9.502 C 0.925,-0.727 0.462,-0.364 0,0" /></g><g
           transform="translate(2154.3625,932.7184)"
           id="g24"><path
             id="path26"
             style="fill:none;stroke:#000000;stroke-width:8;stroke-linecap:butt;stroke-linejoin:miter;stroke-miterlimit:10;stroke-dasharray:none;stroke-opacity:1"
             d="m 0,0 c -2.027,-3.775 -4.098,-7.527 -6.074,-11.329 -54.22,-104.344 -108.505,-208.654 -162.522,-313.102 -5.106,-9.873 -12.379,-14.002 -23.099,-13.993 -88.664,0.081 -177.328,0.041 -265.992,0.06 -1.99,10e-4 -4.016,0.072 -5.966,0.434 -11.878,2.204 -17.114,10.002 -14.265,21.757 1.724,7.113 4.035,14.084 6.126,21.106 65.963,221.478 131.94,442.953 197.895,664.434 38.014,127.652 75.993,255.314 113.986,382.972 4.271,14.353 8.354,17.514 23.659,17.525 68.998,0.047 137.997,-0.254 206.992,0.209 17.119,0.114 25.742,-8.421 19.774,-27.531 C 50.109,613.18 10.309,483.63 -29.664,354.133 c -1.138,-3.688 -2.025,-7.455 -1.361,-11.785 1.676,3.179 3.427,6.32 5.016,9.541 66.028,133.826 132.04,267.661 198.063,401.49 1.326,2.688 2.553,5.453 4.167,7.963 3.027,4.705 7.225,7.81 13.023,8.167 3.322,0.205 6.654,0.362 9.982,0.363 64.331,0.021 128.662,0.019 192.993,0.003 3.33,-10e-4 6.688,0.078 9.984,-0.302 11.078,-1.278 17.182,-9.657 14.633,-20.447 -1.53,-6.47 -3.707,-12.791 -5.704,-19.145 -35.647,-113.403 -71.316,-226.8 -106.953,-340.206 -1.159,-3.69 -2.033,-7.471 -1.767,-11.661 10.407,21.148 20.517,42.447 31.27,63.418 53.651,104.63 107.557,209.13 161.097,313.818 5.418,10.594 12.828,14.746 24.582,14.692 68.663,-0.317 137.328,-0.154 205.993,-0.155 1.333,0 2.668,0.034 3.999,-0.031 16.037,-0.786 22.788,-11.328 16.088,-25.878 C 739.314,730.67 732.57,717.646 726.083,704.504 634.088,518.119 542.07,331.744 450.098,145.347 374.191,-8.491 298.339,-162.356 222.459,-316.208 c -1.473,-2.988 -3.219,-5.866 -4.421,-8.958 -3.643,-9.367 -10.974,-12.841 -20.373,-13.195 -1.998,-0.075 -4,-0.023 -6,-0.023 -85.997,-10e-4 -171.994,-0.009 -257.992,0.027 -3.646,0.002 -7.373,0 -10.925,0.699 -11.252,2.215 -16.388,9.949 -13.319,21.181 7.547,27.617 15.346,55.17 23.41,82.641 21.85,74.444 43.892,148.831 65.852,223.243 0.932,3.157 1.799,6.334 2.696,9.502 C 0.925,-0.727 0.462,-0.364 0,0 Z" /></g><g
           transform="translate(3343.9592,1424.6821)"
           id="g28"><path
             id="path30"
             style="fill:#f86b28;fill-opacity:1;fill-rule:nonzero;stroke:none"
             d="m 0,0 c 24.989,1.967 40.463,11.078 50.092,27.154 5.294,8.839 11.107,17.514 15.167,26.919 16.333,37.845 32.33,75.842 47.912,114.003 6.525,15.98 12.12,32.378 17.306,48.848 2.262,7.182 2.494,15.014 3.533,22.567 0.976,7.103 -2.623,11.313 -8.979,13.651 -7.204,2.651 -14.498,4.685 -22.773,3.446 C 68.292,171.36 34.334,86.151 0,0 m 164.242,-137.235 c 1.497,-0.735 3.098,-1.315 4.476,-2.23 26.549,-17.646 39.237,-43.134 43.461,-74.16 3.706,-27.221 3.201,-54.003 -5.918,-79.941 -16.009,-45.537 -31.848,-91.174 -49.515,-136.078 -50.229,-127.67 -101.339,-254.993 -152.12,-382.445 -6.328,-15.881 -9.791,-18.241 -26.74,-18.246 -76.656,-0.021 -153.312,-0.025 -229.968,0.027 -3.63,0.003 -7.354,0.189 -10.873,0.995 -10.736,2.46 -15.36,10.214 -12.682,20.927 0.642,2.568 1.724,5.036 2.71,7.508 58.066,145.702 116.313,291.332 174.071,437.156 10.901,27.523 20.037,55.755 29.593,83.794 2.453,7.197 3.833,14.843 4.94,22.395 1.48,10.106 0.02,12.617 -9.496,15.482 -6.569,1.978 -13.531,2.651 -20.661,3.971 -1.611,-3.64 -2.883,-6.282 -3.966,-8.999 -75.115,-188.376 -150.221,-376.755 -225.305,-565.142 -6.278,-15.75 -9.593,-18.114 -26.782,-18.118 -82.656,-0.018 -165.311,-0.032 -247.966,0.054 -4.612,0.005 -9.361,0.386 -13.803,1.531 -8.569,2.209 -13.031,9.75 -11.171,18.354 0.768,3.553 2.189,6.989 3.543,10.387 79.021,198.293 158.084,396.57 237.102,594.864 65.826,165.19 131.591,330.404 197.407,495.597 27.731,69.605 55.515,139.188 83.297,208.773 5.232,13.106 9.186,15.926 23.213,15.911 78.32,-0.085 156.644,0.196 234.959,-0.564 45.969,-0.447 91.991,-1.821 137.671,-7.575 19.448,-2.45 38.888,-5.86 57.917,-10.525 35.834,-8.783 60.418,-31.551 74.458,-65.292 12.516,-30.079 16.444,-61.6 12.92,-94.032 C 433.471,286.149 419.335,237.271 402.335,189.14 379.57,124.686 353.801,61.469 320.783,1.508 c -10.737,-19.5 -22.948,-38.313 -35.852,-56.468 -27.439,-38.601 -65.141,-63.22 -109.973,-77.419 -3.106,-0.984 -6.22,-1.945 -9.331,-2.916 -0.461,-0.647 -0.923,-1.293 -1.385,-1.94" /></g><g
           transform="translate(3343.9592,1424.6821)"
           id="g32"><path
             id="path34"
             style="fill:none;stroke:#000000;stroke-width:8;stroke-linecap:butt;stroke-linejoin:miter;stroke-miterlimit:10;stroke-dasharray:none;stroke-opacity:1"
             d="m 0,0 c 24.989,1.967 40.463,11.078 50.092,27.154 5.294,8.839 11.107,17.514 15.167,26.919 16.333,37.845 32.33,75.842 47.912,114.003 6.525,15.98 12.12,32.378 17.306,48.848 2.262,7.182 2.494,15.014 3.533,22.567 0.976,7.103 -2.623,11.313 -8.979,13.651 -7.204,2.651 -14.498,4.685 -22.773,3.446 C 68.292,171.36 34.334,86.151 0,0 Z m 164.242,-137.235 c 1.497,-0.735 3.098,-1.315 4.476,-2.23 26.549,-17.646 39.237,-43.134 43.461,-74.16 3.706,-27.221 3.201,-54.003 -5.918,-79.941 -16.009,-45.537 -31.848,-91.174 -49.515,-136.078 -50.229,-127.67 -101.339,-254.993 -152.12,-382.445 -6.328,-15.881 -9.791,-18.241 -26.74,-18.246 -76.656,-0.021 -153.312,-0.025 -229.968,0.027 -3.63,0.003 -7.354,0.189 -10.873,0.995 -10.736,2.46 -15.36,10.214 -12.682,20.927 0.642,2.568 1.724,5.036 2.71,7.508 58.066,145.702 116.313,291.332 174.071,437.156 10.901,27.523 20.037,55.755 29.593,83.794 2.453,7.197 3.833,14.843 4.94,22.395 1.48,10.106 0.02,12.617 -9.496,15.482 -6.569,1.978 -13.531,2.651 -20.661,3.971 -1.611,-3.64 -2.883,-6.282 -3.966,-8.999 -75.115,-188.376 -150.221,-376.755 -225.305,-565.142 -6.278,-15.75 -9.593,-18.114 -26.782,-18.118 -82.656,-0.018 -165.311,-0.032 -247.966,0.054 -4.612,0.005 -9.361,0.386 -13.803,1.531 -8.569,2.209 -13.031,9.75 -11.171,18.354 0.768,3.553 2.189,6.989 3.543,10.387 79.021,198.293 158.084,396.57 237.102,594.864 65.826,165.19 131.591,330.404 197.407,495.597 27.731,69.605 55.515,139.188 83.297,208.773 5.232,13.106 9.186,15.926 23.213,15.911 78.32,-0.085 156.644,0.196 234.959,-0.564 45.969,-0.447 91.991,-1.821 137.671,-7.575 19.448,-2.45 38.888,-5.86 57.917,-10.525 35.834,-8.783 60.418,-31.551 74.458,-65.292 12.516,-30.079 16.444,-61.6 12.92,-94.032 C 433.471,286.149 419.335,237.271 402.335,189.14 379.57,124.686 353.801,61.469 320.783,1.508 c -10.737,-19.5 -22.948,-38.313 -35.852,-56.468 -27.439,-38.601 -65.141,-63.22 -109.973,-77.419 -3.106,-0.984 -6.22,-1.945 -9.331,-2.916 -0.461,-0.647 -0.923,-1.293 -1.385,-1.94 z" /></g><g
           transform="translate(6157.2969,940.5858)"
           id="g36"><path
             id="path38"
             style="fill:#f86b28;fill-opacity:1;fill-rule:nonzero;stroke:none"
             d="m 0,0 c 12.306,-2.194 20.521,2.052 27.079,9.169 4.916,5.336 9.628,11.263 12.804,17.726 11.307,23 23.024,45.896 32.606,69.631 47.123,116.723 93.742,233.65 140.226,350.63 11.678,29.386 22.355,59.175 33.138,88.907 2.439,6.726 3.4,13.988 5.036,20.98 -6.179,2.957 -11.263,2.105 -15.526,-0.398 -5.377,-3.158 -11.163,-6.616 -14.865,-11.415 -7.079,-9.173 -13.755,-18.917 -18.892,-29.27 C 192.143,496.885 183.2,477.483 175.284,457.719 126.128,334.993 77.168,212.187 28.524,89.258 18.979,65.136 10.955,40.404 2.575,15.836 0.926,11.004 0.869,5.629 0,0 m -127.444,-307.854 c 15.86,-2.974 29.022,1.378 39.115,13.014 5.831,6.724 10.644,14.504 14.968,22.332 15.821,28.646 27.331,59.233 39.423,89.544 0.448,1.122 0.403,2.44 0.859,5.479 -4.346,-2.554 -7.378,-4.309 -10.383,-6.107 -30.563,-18.284 -62.946,-31.83 -98.235,-37.871 -33.565,-5.745 -66.557,-3.166 -98.398,8.631 -35.352,13.098 -56.954,39.153 -67.141,75.175 -8.328,29.45 -5.507,58.717 0.805,87.993 11.133,51.632 29.287,100.97 48.805,149.876 52.827,132.371 105.401,264.844 158.474,397.116 22.502,56.081 49.157,110.087 84.185,159.628 25.655,36.286 55.763,67.964 93.991,91.27 41.691,25.418 87.08,36.662 135.627,32.937 47.148,-3.617 82.333,-26.36 103.413,-69.453 1.019,-2.083 2.143,-4.116 3.258,-6.149 0.104,-0.189 0.507,-0.215 1.325,-0.53 1.766,2.577 3.705,5.214 5.443,7.977 8.161,12.972 16.361,25.92 24.351,38.997 4.011,6.562 9.568,9.977 17.256,9.946 2.666,-0.011 5.332,0.062 7.998,0.062 72.654,0.004 145.308,0.008 217.963,-0.011 3.661,-10e-4 7.361,0.085 10.976,-0.386 10.324,-1.348 15.925,-8.726 14.07,-19.01 -0.816,-4.529 -2.665,-8.915 -4.384,-13.231 C 562.217,593.571 508.08,457.78 453.934,321.993 394.238,172.288 334.736,22.505 274.707,-127.066 c -19.346,-48.203 -40.382,-95.725 -60.124,-143.772 -21.417,-52.124 -54.596,-95.722 -94.539,-134.884 -66.942,-65.633 -146.96,-104.567 -239.224,-119.201 -45.956,-7.289 -92.115,-9.479 -138.473,-5.34 -27.622,2.465 -54.68,7.961 -80.805,17.531 -16.381,6.001 -31.34,14.515 -45.492,24.727 -25.276,18.237 -38.917,42.995 -43.491,73.501 -4.027,26.863 -0.688,53.186 4.785,79.363 5.801,27.746 14.123,54.796 24.029,81.353 4.707,12.619 8.686,15.497 22.295,15.505 78.987,0.046 157.974,0.029 236.96,-0.007 2.984,-0.001 6.056,-0.035 8.936,-0.702 9.259,-2.145 14.448,-10.52 11.889,-19.707 -2.23,-8.005 -5.645,-15.693 -7.678,-23.738 -2.077,-8.22 -4.746,-16.667 -1.219,-25.417" /></g><g
           transform="translate(6157.2969,940.5858)"
           id="g40"><path
             id="path42"
             style="fill:none;stroke:#000000;stroke-width:8;stroke-linecap:butt;stroke-linejoin:miter;stroke-miterlimit:10;stroke-dasharray:none;stroke-opacity:1"
             d="m 0,0 c 12.306,-2.194 20.521,2.052 27.079,9.169 4.916,5.336 9.628,11.263 12.804,17.726 11.307,23 23.024,45.896 32.606,69.631 47.123,116.723 93.742,233.65 140.226,350.63 11.678,29.386 22.355,59.175 33.138,88.907 2.439,6.726 3.4,13.988 5.036,20.98 -6.179,2.957 -11.263,2.105 -15.526,-0.398 -5.377,-3.158 -11.163,-6.616 -14.865,-11.415 -7.079,-9.173 -13.755,-18.917 -18.892,-29.27 C 192.143,496.885 183.2,477.483 175.284,457.719 126.128,334.993 77.168,212.187 28.524,89.258 18.979,65.136 10.955,40.404 2.575,15.836 0.926,11.004 0.869,5.629 0,0 Z m -127.444,-307.854 c 15.86,-2.974 29.022,1.378 39.115,13.014 5.831,6.724 10.644,14.504 14.968,22.332 15.821,28.646 27.331,59.233 39.423,89.544 0.448,1.122 0.403,2.44 0.859,5.479 -4.346,-2.554 -7.378,-4.309 -10.383,-6.107 -30.563,-18.284 -62.946,-31.83 -98.235,-37.871 -33.565,-5.745 -66.557,-3.166 -98.398,8.631 -35.352,13.098 -56.954,39.153 -67.141,75.175 -8.328,29.45 -5.507,58.717 0.805,87.993 11.133,51.632 29.287,100.97 48.805,149.876 52.827,132.371 105.401,264.844 158.474,397.116 22.502,56.081 49.157,110.087 84.185,159.628 25.655,36.286 55.763,67.964 93.991,91.27 41.691,25.418 87.08,36.662 135.627,32.937 47.148,-3.617 82.333,-26.36 103.413,-69.453 1.019,-2.083 2.143,-4.116 3.258,-6.149 0.104,-0.189 0.507,-0.215 1.325,-0.53 1.766,2.577 3.705,5.214 5.443,7.977 8.161,12.972 16.361,25.92 24.351,38.997 4.011,6.562 9.568,9.977 17.256,9.946 2.666,-0.011 5.332,0.062 7.998,0.062 72.654,0.004 145.308,0.008 217.963,-0.011 3.661,-10e-4 7.361,0.085 10.976,-0.386 10.324,-1.348 15.925,-8.726 14.07,-19.01 -0.816,-4.529 -2.665,-8.915 -4.384,-13.231 C 562.217,593.571 508.08,457.78 453.934,321.993 394.238,172.288 334.736,22.505 274.707,-127.066 c -19.346,-48.203 -40.382,-95.725 -60.124,-143.772 -21.417,-52.124 -54.596,-95.722 -94.539,-134.884 -66.942,-65.633 -146.96,-104.567 -239.224,-119.201 -45.956,-7.289 -92.115,-9.479 -138.473,-5.34 -27.622,2.465 -54.68,7.961 -80.805,17.531 -16.381,6.001 -31.34,14.515 -45.492,24.727 -25.276,18.237 -38.917,42.995 -43.491,73.501 -4.027,26.863 -0.688,53.186 4.785,79.363 5.801,27.746 14.123,54.796 24.029,81.353 4.707,12.619 8.686,15.497 22.295,15.505 78.987,0.046 157.974,0.029 236.96,-0.007 2.984,-0.001 6.056,-0.035 8.936,-0.702 9.259,-2.145 14.448,-10.52 11.889,-19.707 -2.23,-8.005 -5.645,-15.693 -7.678,-23.738 -2.077,-8.22 -4.746,-16.667 -1.219,-25.417 z" /></g><g
           transform="translate(692.6732,1053.5068)"
           id="g44"><path
             id="path46"
             style="fill:#f86b28;fill-opacity:1;fill-rule:nonzero;stroke:none"
             d="m 0,0 c -1.434,-3.256 -2.972,-6.472 -4.288,-9.775 -57.458,-144.158 -114.895,-288.325 -172.341,-432.488 -5.556,-13.943 -9.708,-16.875 -24.67,-16.884 -69.327,-0.039 -138.654,-0.016 -207.981,-0.008 -1.999,0 -4.017,-0.079 -5.992,0.156 -14.502,1.731 -20.755,11.007 -15.427,24.617 18.569,47.433 37.574,94.695 56.825,143.057 3.884,-3.575 7.341,-6.461 10.458,-9.677 20.375,-21.023 40.675,-42.119 61.006,-63.186 0.461,-0.478 0.984,-0.898 1.485,-1.337 11.148,-9.766 22.217,-7.372 27.652,6.343 6.741,17.012 13.118,34.169 19.598,51.284 5.186,13.697 10.106,27.499 15.495,41.116 3.829,9.677 3.017,17.792 -4.853,25.421 -23.413,22.696 -46.456,45.772 -69.736,68.606 -3.297,3.234 -7.109,5.943 -10.372,8.64 7.002,17.545 13.267,33.239 20.164,50.518 4.578,-4.342 8.479,-7.687 11.97,-11.416 14.204,-15.175 30.993,-24.462 52.285,-25.564 17.115,-0.886 30.123,6.738 42.046,17.493 12.321,11.113 21.34,24.839 28.218,39.65 11.816,25.445 21.028,51.845 23.821,80.048 2.392,24.164 -0.077,47.884 -7.055,71.108 -2.106,7.01 -4.436,13.996 -7.296,20.723 -2.845,6.691 -6.486,13.044 -10.594,21.157 4.683,-2.926 8.067,-5.687 11.928,-7.315 7.278,-3.069 14.65,-6.339 22.315,-7.956 9.573,-2.019 18.384,1.099 26.028,7.415 13.697,11.319 23.374,25.338 29.267,42.099 5.013,14.257 8.549,28.731 7.869,43.982 -0.186,4.17 1.202,7.066 4.393,10.324 4.014,4.101 6.855,9.76 8.99,15.22 8.605,22.01 16.714,44.214 25.078,66.319 2.001,5.289 4.409,10.425 6.399,15.718 3.193,8.492 2.396,15.789 -4.71,22.675 -18.175,17.613 -35.743,35.851 -53.7,53.691 -5.418,5.382 -11.281,10.321 -17.009,15.383 -3.046,2.692 -3.693,5.368 0.234,9.117 2.998,-2.94 6.082,-5.817 9.003,-8.851 17.53,-18.208 35,-36.474 52.547,-54.666 4.028,-4.176 8.6,-7.409 14.874,-6.927 7.142,0.55 11.457,4.439 13.947,11.026 5.411,14.317 11.111,28.526 16.556,42.831 5.211,13.69 9.854,27.61 15.484,41.122 4.602,11.046 4.639,20.635 -5.149,28.833 -0.697,0.584 -1.039,1.593 -2.244,3.524 2.646,-0.417 4.321,-0.757 6.014,-0.934 8.72,-0.914 14.051,1.957 17.293,10.259 7.507,19.221 14.71,38.56 22.01,57.86 4.003,10.584 7.815,21.243 11.971,31.766 3.496,8.849 1.537,15.862 -5.239,22.546 -17.306,17.073 -34.138,34.627 -51.326,51.822 -4.91,4.911 -10.503,9.133 -15.533,13.932 -1.273,1.216 -1.587,3.437 -2.341,5.196 0.63,0.43 1.26,0.861 1.89,1.292 2.814,-2.674 5.734,-5.247 8.426,-8.038 17.329,-17.964 34.47,-36.112 51.959,-53.918 9.426,-9.597 20.647,-7.517 26.252,4.963 4.766,10.611 8.621,21.635 12.78,32.514 7.251,18.972 14.357,37.998 21.663,56.948 3.1,8.042 1.835,15.207 -4.178,21.166 -19.837,19.66 -39.816,39.178 -59.814,58.675 -3.081,3.005 -6.55,5.613 -9.66,8.252 1.309,3.924 2.014,6.444 2.977,8.862 13.795,34.653 27.614,69.296 41.451,103.932 5.252,13.145 9.246,16.033 23.133,16.043 70.327,0.054 140.654,0.028 210.981,0.016 1.996,0 4.02,0.02 5.982,-0.281 11.423,-1.75 16.967,-8.932 15.338,-20.327 C 340.59,838.021 336.438,810.359 332.4,782.679 324.661,729.624 316.969,676.562 309.218,623.508 301.564,571.115 293.85,518.73 286.185,466.339 c -2.262,-15.462 -4.45,-30.935 -5.271,-46.982 1.238,2.631 2.618,5.206 3.693,7.903 36.253,90.944 72.47,181.902 108.709,272.852 22.557,56.612 45.131,113.218 67.72,169.818 5.433,13.614 9.356,16.376 23.924,16.385 69.661,0.041 139.321,0.014 208.981,0.011 1,0 2.001,-0.032 3,-0.008 15.981,0.386 23.729,-11.083 17.74,-25.963 C 703.862,833.476 693.182,806.54 682.456,779.622 597.274,565.854 512.107,352.08 426.91,138.318 349.725,-55.34 272.508,-248.984 195.301,-442.633 c -5.314,-13.327 -9.724,-16.5 -23.957,-16.511 -73.327,-0.055 -146.654,-0.031 -219.98,0.002 -2.647,10e-4 -5.348,0.129 -7.932,0.651 -10.893,2.203 -15.529,8.039 -14.307,19.106 1.132,10.25 3.017,20.42 4.707,30.603 13.254,79.813 26.511,159.625 39.826,239.428 8.986,53.861 18.077,107.704 27.071,161.564 0.41,2.453 0.33,4.988 0.478,7.484 C 0.805,-0.204 0.402,-0.102 0,0" /></g><g
           transform="translate(692.6732,1053.5068)"
           id="g48"><path
             id="path50"
             style="fill:none;stroke:#000000;stroke-width:8;stroke-linecap:butt;stroke-linejoin:miter;stroke-miterlimit:10;stroke-dasharray:none;stroke-opacity:1"
             d="m 0,0 c -1.434,-3.256 -2.972,-6.472 -4.288,-9.775 -57.458,-144.158 -114.895,-288.325 -172.341,-432.488 -5.556,-13.943 -9.708,-16.875 -24.67,-16.884 -69.327,-0.039 -138.654,-0.016 -207.981,-0.008 -1.999,0 -4.017,-0.079 -5.992,0.156 -14.502,1.731 -20.755,11.007 -15.427,24.617 18.569,47.433 37.574,94.695 56.825,143.057 3.884,-3.575 7.341,-6.461 10.458,-9.677 20.375,-21.023 40.675,-42.119 61.006,-63.186 0.461,-0.478 0.984,-0.898 1.485,-1.337 11.148,-9.766 22.217,-7.372 27.652,6.343 6.741,17.012 13.118,34.169 19.598,51.284 5.186,13.697 10.106,27.499 15.495,41.116 3.829,9.677 3.017,17.792 -4.853,25.421 -23.413,22.696 -46.456,45.772 -69.736,68.606 -3.297,3.234 -7.109,5.943 -10.372,8.64 7.002,17.545 13.267,33.239 20.164,50.518 4.578,-4.342 8.479,-7.687 11.97,-11.416 14.204,-15.175 30.993,-24.462 52.285,-25.564 17.115,-0.886 30.123,6.738 42.046,17.493 12.321,11.113 21.34,24.839 28.218,39.65 11.816,25.445 21.028,51.845 23.821,80.048 2.392,24.164 -0.077,47.884 -7.055,71.108 -2.106,7.01 -4.436,13.996 -7.296,20.723 -2.845,6.691 -6.486,13.044 -10.594,21.157 4.683,-2.926 8.067,-5.687 11.928,-7.315 7.278,-3.069 14.65,-6.339 22.315,-7.956 9.573,-2.019 18.384,1.099 26.028,7.415 13.697,11.319 23.374,25.338 29.267,42.099 5.013,14.257 8.549,28.731 7.869,43.982 -0.186,4.17 1.202,7.066 4.393,10.324 4.014,4.101 6.855,9.76 8.99,15.22 8.605,22.01 16.714,44.214 25.078,66.319 2.001,5.289 4.409,10.425 6.399,15.718 3.193,8.492 2.396,15.789 -4.71,22.675 -18.175,17.613 -35.743,35.851 -53.7,53.691 -5.418,5.382 -11.281,10.321 -17.009,15.383 -3.046,2.692 -3.693,5.368 0.234,9.117 2.998,-2.94 6.082,-5.817 9.003,-8.851 17.53,-18.208 35,-36.474 52.547,-54.666 4.028,-4.176 8.6,-7.409 14.874,-6.927 7.142,0.55 11.457,4.439 13.947,11.026 5.411,14.317 11.111,28.526 16.556,42.831 5.211,13.69 9.854,27.61 15.484,41.122 4.602,11.046 4.639,20.635 -5.149,28.833 -0.697,0.584 -1.039,1.593 -2.244,3.524 2.646,-0.417 4.321,-0.757 6.014,-0.934 8.72,-0.914 14.051,1.957 17.293,10.259 7.507,19.221 14.71,38.56 22.01,57.86 4.003,10.584 7.815,21.243 11.971,31.766 3.496,8.849 1.537,15.862 -5.239,22.546 -17.306,17.073 -34.138,34.627 -51.326,51.822 -4.91,4.911 -10.503,9.133 -15.533,13.932 -1.273,1.216 -1.587,3.437 -2.341,5.196 0.63,0.43 1.26,0.861 1.89,1.292 2.814,-2.674 5.734,-5.247 8.426,-8.038 17.329,-17.964 34.47,-36.112 51.959,-53.918 9.426,-9.597 20.647,-7.517 26.252,4.963 4.766,10.611 8.621,21.635 12.78,32.514 7.251,18.972 14.357,37.998 21.663,56.948 3.1,8.042 1.835,15.207 -4.178,21.166 -19.837,19.66 -39.816,39.178 -59.814,58.675 -3.081,3.005 -6.55,5.613 -9.66,8.252 1.309,3.924 2.014,6.444 2.977,8.862 13.795,34.653 27.614,69.296 41.451,103.932 5.252,13.145 9.246,16.033 23.133,16.043 70.327,0.054 140.654,0.028 210.981,0.016 1.996,0 4.02,0.02 5.982,-0.281 11.423,-1.75 16.967,-8.932 15.338,-20.327 C 340.59,838.021 336.438,810.359 332.4,782.679 324.661,729.624 316.969,676.562 309.218,623.508 301.564,571.115 293.85,518.73 286.185,466.339 c -2.262,-15.462 -4.45,-30.935 -5.271,-46.982 1.238,2.631 2.618,5.206 3.693,7.903 36.253,90.944 72.47,181.902 108.709,272.852 22.557,56.612 45.131,113.218 67.72,169.818 5.433,13.614 9.356,16.376 23.924,16.385 69.661,0.041 139.321,0.014 208.981,0.011 1,0 2.001,-0.032 3,-0.008 15.981,0.386 23.729,-11.083 17.74,-25.963 C 703.862,833.476 693.182,806.54 682.456,779.622 597.274,565.854 512.107,352.08 426.91,138.318 349.725,-55.34 272.508,-248.984 195.301,-442.633 c -5.314,-13.327 -9.724,-16.5 -23.957,-16.511 -73.327,-0.055 -146.654,-0.031 -219.98,0.002 -2.647,10e-4 -5.348,0.129 -7.932,0.651 -10.893,2.203 -15.529,8.039 -14.307,19.106 1.132,10.25 3.017,20.42 4.707,30.603 13.254,79.813 26.511,159.625 39.826,239.428 8.986,53.861 18.077,107.704 27.071,161.564 0.41,2.453 0.33,4.988 0.478,7.484 C 0.805,-0.204 0.402,-0.102 0,0 Z" /></g><g
           transform="translate(5739.1704,1497.9734)"
           id="g52"><path
             id="path54"
             style="fill:#f86b28;fill-opacity:1;fill-rule:nonzero;stroke:none"
             d="m 0,0 c -11.352,3.135 -20.222,0.401 -27.08,-6.414 -6.049,-6.011 -11.872,-12.922 -15.555,-20.521 -12.771,-26.359 -25.582,-52.779 -36.556,-79.913 -46.322,-114.538 -92.056,-229.314 -137.872,-344.055 -58.047,-145.369 -115.962,-290.791 -173.946,-436.185 -5.418,-13.585 -9.428,-16.501 -23.855,-16.512 -80.995,-0.064 -161.99,-0.047 -242.986,0.008 -2.959,0.002 -5.994,0.377 -8.861,1.102 -9.846,2.486 -14.41,9.551 -12.377,19.394 0.733,3.547 2.248,6.953 3.6,10.346 112.689,282.768 225.405,565.524 338.096,848.291 28.358,71.154 56.633,142.342 84.956,213.511 5.068,12.736 8.801,15.52 22.403,15.532 83.328,0.072 166.657,0.071 249.986,0.003 12.757,-0.01 18.655,-3.818 19.988,-13.473 0.555,-4.019 -0.79,-8.463 -1.961,-12.514 -1.283,-4.441 -3.373,-8.648 -5.066,-12.974 -0.081,-0.205 0.264,-0.577 0.889,-1.828 3.169,2.275 6.28,4.433 9.311,6.697 25.804,19.273 53.354,35.221 84.448,44.442 35.827,10.626 71.871,13.37 108.407,3.546 37.812,-10.166 61.162,-34.818 72.481,-71.649 8.451,-27.495 7.639,-55.186 1.457,-82.974 C 298.443,12.329 280.913,-37.304 261.663,-86.278 215.853,-202.82 169.382,-319.102 123.078,-435.449 63.6,-584.904 4.026,-734.321 -55.514,-883.751 c -7.226,-18.137 -9.834,-19.882 -29.667,-19.884 -78.329,-0.009 -156.658,-0.024 -234.987,0.047 -4.286,0.004 -8.698,0.239 -12.831,1.261 -9.769,2.416 -14.208,9.784 -11.973,19.611 0.879,3.861 2.533,7.565 4.009,11.271 100.954,253.39 202.015,506.738 302.785,760.201 12.173,30.62 22.907,61.817 34.02,92.849 C -2.086,-12.613 -1.393,-6.338 0,0" /></g><g
           transform="translate(5739.1704,1497.9734)"
           id="g56"><path
             id="path58"
             style="fill:none;stroke:#000000;stroke-width:8;stroke-linecap:butt;stroke-linejoin:miter;stroke-miterlimit:10;stroke-dasharray:none;stroke-opacity:1"
             d="m 0,0 c -11.352,3.135 -20.222,0.401 -27.08,-6.414 -6.049,-6.011 -11.872,-12.922 -15.555,-20.521 -12.771,-26.359 -25.582,-52.779 -36.556,-79.913 -46.322,-114.538 -92.056,-229.314 -137.872,-344.055 -58.047,-145.369 -115.962,-290.791 -173.946,-436.185 -5.418,-13.585 -9.428,-16.501 -23.855,-16.512 -80.995,-0.064 -161.99,-0.047 -242.986,0.008 -2.959,0.002 -5.994,0.377 -8.861,1.102 -9.846,2.486 -14.41,9.551 -12.377,19.394 0.733,3.547 2.248,6.953 3.6,10.346 112.689,282.768 225.405,565.524 338.096,848.291 28.358,71.154 56.633,142.342 84.956,213.511 5.068,12.736 8.801,15.52 22.403,15.532 83.328,0.072 166.657,0.071 249.986,0.003 12.757,-0.01 18.655,-3.818 19.988,-13.473 0.555,-4.019 -0.79,-8.463 -1.961,-12.514 -1.283,-4.441 -3.373,-8.648 -5.066,-12.974 -0.081,-0.205 0.264,-0.577 0.889,-1.828 3.169,2.275 6.28,4.433 9.311,6.697 25.804,19.273 53.354,35.221 84.448,44.442 35.827,10.626 71.871,13.37 108.407,3.546 37.812,-10.166 61.162,-34.818 72.481,-71.649 8.451,-27.495 7.639,-55.186 1.457,-82.974 C 298.443,12.329 280.913,-37.304 261.663,-86.278 215.853,-202.82 169.382,-319.102 123.078,-435.449 63.6,-584.904 4.026,-734.321 -55.514,-883.751 c -7.226,-18.137 -9.834,-19.882 -29.667,-19.884 -78.329,-0.009 -156.658,-0.024 -234.987,0.047 -4.286,0.004 -8.698,0.239 -12.831,1.261 -9.769,2.416 -14.208,9.784 -11.973,19.611 0.879,3.861 2.533,7.565 4.009,11.271 100.954,253.39 202.015,506.738 302.785,760.201 12.173,30.62 22.907,61.817 34.02,92.849 C -2.086,-12.613 -1.393,-6.338 0,0 Z" /></g><g
           transform="translate(3936.5649,1274.8367)"
           id="g60"><path
             id="path62"
             style="fill:#f86b28;fill-opacity:1;fill-rule:nonzero;stroke:none"
             d="m 0,0 c 0.518,-0.691 1.035,-1.383 1.552,-2.074 9.246,4.998 18.374,10.23 27.765,14.938 14.266,7.154 24.299,18.083 31.47,32.249 24.578,48.556 44.439,98.965 59.682,151.174 2.02,6.92 2.14,14.418 2.901,21.673 0.49,4.666 -2.131,6.578 -6.614,6.612 -9.571,0.074 -17.739,-3.274 -23.807,-10.611 -3.575,-4.324 -6.853,-9.116 -9.209,-14.187 C 73.084,176.836 62.182,153.981 52.522,130.619 34.591,87.255 17.463,43.558 0,0 m -178.174,-474.535 c 1.597,-0.539 3.102,-1.387 4.668,-1.521 14.162,-1.204 24.756,5.023 31.43,17.009 7.597,13.641 15.138,27.455 21.035,41.875 28.837,70.511 57.121,141.247 85.57,211.916 0.459,1.139 0.543,2.428 0.784,3.567 -0.755,0.284 -1.081,0.529 -1.243,0.448 -1.173,-0.591 -2.433,-1.098 -3.448,-1.905 -28.661,-22.798 -53.59,-48.531 -70.055,-82.026 -15.726,-31.991 -30.36,-64.407 -42.932,-97.724 -8.332,-22.083 -15.784,-44.504 -23.292,-66.887 -2.635,-7.855 -4.4,-16.035 -2.517,-24.752 m -26.04,-167.013 c -6.398,-4.746 -12.775,-9.52 -19.196,-14.233 -30.948,-22.72 -65.307,-37.548 -103.461,-42.032 -40.521,-4.763 -79.37,0.481 -112.87,26.143 -9.676,7.413 -18.372,16.456 -26.208,25.845 -13.936,16.697 -17.057,37.233 -17.526,58.176 -0.602,26.912 5.297,52.922 11.952,78.767 8.903,34.574 21.075,68.042 34.618,101.025 18.715,45.575 37.132,91.281 56.573,136.546 7.334,17.076 16.884,33.236 25.919,49.539 23.322,42.081 55.919,74.911 97.7,99.056 40.465,23.385 82.565,43.271 125.435,61.672 26.313,11.295 52.647,22.541 78.958,33.842 3.294,1.415 6.503,3.03 9.69,6.229 -3.369,0.155 -6.739,0.444 -10.108,0.446 -65.317,0.027 -130.634,-0.008 -195.951,0.084 -4.613,0.007 -9.355,0.38 -13.811,1.488 -9.103,2.262 -13.467,9.914 -11.405,19.041 0.439,1.943 1.039,3.873 1.784,5.721 22.675,56.19 43.813,113.025 71.009,167.306 20.194,40.306 42.33,79.404 71.044,114.358 34.901,42.485 77.767,75.557 124.623,103.709 62.919,37.803 131.357,55.602 204.559,56.384 36.169,0.386 71.853,-2.589 106.826,-12.288 15.808,-4.384 30.968,-10.273 45.01,-18.817 32.44,-19.738 51.885,-49.056 62.207,-84.969 10.226,-35.58 8.262,-71.115 -0.638,-106.621 C 399.946,174.716 383.135,125.888 364.626,77.732 320.548,-36.946 275.854,-151.39 230.729,-265.66 178.385,-398.207 125.319,-530.469 72.558,-662.851 c -6.073,-15.239 -9.586,-17.64 -26.108,-17.644 -77.314,-0.018 -154.628,-0.03 -231.942,0.053 -4.28,0.005 -8.702,0.351 -12.808,1.462 -8.523,2.307 -12.784,9.759 -10.915,18.446 0.695,3.232 1.948,6.351 3.04,9.488 0.97,2.786 2.069,5.526 3.111,8.286 -0.383,0.404 -0.767,0.808 -1.15,1.212" /></g><g
           transform="translate(3936.5649,1274.8367)"
           id="g64"><path
             id="path66"
             style="fill:none;stroke:#000000;stroke-width:8;stroke-linecap:butt;stroke-linejoin:miter;stroke-miterlimit:10;stroke-dasharray:none;stroke-opacity:1"
             d="m 0,0 c 0.518,-0.691 1.035,-1.383 1.552,-2.074 9.246,4.998 18.374,10.23 27.765,14.938 14.266,7.154 24.299,18.083 31.47,32.249 24.578,48.556 44.439,98.965 59.682,151.174 2.02,6.92 2.14,14.418 2.901,21.673 0.49,4.666 -2.131,6.578 -6.614,6.612 -9.571,0.074 -17.739,-3.274 -23.807,-10.611 -3.575,-4.324 -6.853,-9.116 -9.209,-14.187 C 73.084,176.836 62.182,153.981 52.522,130.619 34.591,87.255 17.463,43.558 0,0 Z m -178.174,-474.535 c 1.597,-0.539 3.102,-1.387 4.668,-1.521 14.162,-1.204 24.756,5.023 31.43,17.009 7.597,13.641 15.138,27.455 21.035,41.875 28.837,70.511 57.121,141.247 85.57,211.916 0.459,1.139 0.543,2.428 0.784,3.567 -0.755,0.284 -1.081,0.529 -1.243,0.448 -1.173,-0.591 -2.433,-1.098 -3.448,-1.905 -28.661,-22.798 -53.59,-48.531 -70.055,-82.026 -15.726,-31.991 -30.36,-64.407 -42.932,-97.724 -8.332,-22.083 -15.784,-44.504 -23.292,-66.887 -2.635,-7.855 -4.4,-16.035 -2.517,-24.752 z m -26.04,-167.013 c -6.398,-4.746 -12.775,-9.52 -19.196,-14.233 -30.948,-22.72 -65.307,-37.548 -103.461,-42.032 -40.521,-4.763 -79.37,0.481 -112.87,26.143 -9.676,7.413 -18.372,16.456 -26.208,25.845 -13.936,16.697 -17.057,37.233 -17.526,58.176 -0.602,26.912 5.297,52.922 11.952,78.767 8.903,34.574 21.075,68.042 34.618,101.025 18.715,45.575 37.132,91.281 56.573,136.546 7.334,17.076 16.884,33.236 25.919,49.539 23.322,42.081 55.919,74.911 97.7,99.056 40.465,23.385 82.565,43.271 125.435,61.672 26.313,11.295 52.647,22.541 78.958,33.842 3.294,1.415 6.503,3.03 9.69,6.229 -3.369,0.155 -6.739,0.444 -10.108,0.446 -65.317,0.027 -130.634,-0.008 -195.951,0.084 -4.613,0.007 -9.355,0.38 -13.811,1.488 -9.103,2.262 -13.467,9.914 -11.405,19.041 0.439,1.943 1.039,3.873 1.784,5.721 22.675,56.19 43.813,113.025 71.009,167.306 20.194,40.306 42.33,79.404 71.044,114.358 34.901,42.485 77.767,75.557 124.623,103.709 62.919,37.803 131.357,55.602 204.559,56.384 36.169,0.386 71.853,-2.589 106.826,-12.288 15.808,-4.384 30.968,-10.273 45.01,-18.817 32.44,-19.738 51.885,-49.056 62.207,-84.969 10.226,-35.58 8.262,-71.115 -0.638,-106.621 C 399.946,174.716 383.135,125.888 364.626,77.732 320.548,-36.946 275.854,-151.39 230.729,-265.66 178.385,-398.207 125.319,-530.469 72.558,-662.851 c -6.073,-15.239 -9.586,-17.64 -26.108,-17.644 -77.314,-0.018 -154.628,-0.03 -231.942,0.053 -4.28,0.005 -8.702,0.351 -12.808,1.462 -8.523,2.307 -12.784,9.759 -10.915,18.446 0.695,3.232 1.948,6.351 3.04,9.488 0.97,2.786 2.069,5.526 3.111,8.286 -0.383,0.404 -0.767,0.808 -1.15,1.212 z" /></g><g
           transform="translate(1621.3674,1498.9526)"
           id="g68"><path
             id="path70"
             style="fill:#f86b28;fill-opacity:1;fill-rule:nonzero;stroke:none"
             d="m 0,0 c -15.437,1.322 -25.431,-4.244 -32.375,-15.21 -4.079,-6.443 -7.897,-13.173 -10.854,-20.187 -19.365,-45.947 -38.47,-92.003 -57.607,-138.045 -0.46,-1.105 -0.299,-2.468 -0.406,-3.5 1.035,-0.568 1.583,-1.127 2.139,-1.134 9.31,-0.128 18.621,-0.252 27.932,-0.242 8.294,0.009 8.353,0.058 11.463,7.858 10.588,26.557 21.545,52.977 31.569,79.746 8.97,23.953 17.069,48.239 25.144,72.514 C -1.175,-12.73 -1.05,-6.697 0,0 m -184.7,-385.283 c -1.198,-2.367 -2.233,-4.068 -2.958,-5.893 -32.825,-82.644 -65.747,-165.25 -98.306,-247.999 -5.474,-13.912 -9.634,-28.368 -13.853,-42.734 -1.549,-5.274 -1.509,-11.015 -2.257,-17.048 11.859,-3.121 21.882,-0.712 29.989,6.114 7.273,6.123 14.553,13.2 19.132,21.368 11.382,20.301 22.426,40.959 31.443,62.384 20.668,49.11 40.05,98.762 59.946,148.198 3.358,8.342 6.725,16.68 10.001,25.054 3.305,8.452 9.631,12.408 18.494,12.677 2.665,0.081 5.333,0.048 8,0.048 73.999,0.002 147.999,0.008 221.999,-0.014 3.659,-0.001 7.384,0.149 10.965,-0.452 10.971,-1.843 16.537,-10.515 13.434,-21.236 -1.753,-6.055 -4.263,-11.904 -6.611,-17.774 C 92.331,-518.558 70.574,-574.772 44.82,-629.352 2.361,-719.334 -60.152,-792.623 -139.578,-851.744 c -54.474,-40.548 -116.066,-63.195 -183.626,-69.601 -45.804,-4.344 -91.189,-2.821 -135.7,10.217 -37.474,10.977 -69.372,30.301 -93.415,61.682 -17.394,22.702 -24.869,49.102 -29.028,76.712 -6.158,40.894 -1.23,81.021 8.815,120.783 12.589,49.834 29.901,98.092 48.834,145.777 45.965,115.767 91.93,231.535 138.422,347.091 24.913,61.922 54.227,121.688 91.262,177.449 39.264,59.116 87.467,109.109 148.692,145.727 71.672,42.866 149.006,63.819 232.778,58.713 28.736,-1.752 56.951,-6.852 83.72,-17.757 50.594,-20.612 82.733,-57.872 97.775,-110.195 11.04,-38.4 9.562,-77.068 2.598,-115.853 -11.945,-66.535 -33.454,-130.232 -57.903,-192.996 -20.067,-51.517 -40.777,-102.784 -61.233,-154.15 -6.02,-15.117 -8.963,-17.122 -25.307,-17.125 -100,-0.022 -199.999,-0.012 -299.999,-0.013 -3.953,0 -7.906,0 -11.807,0" /></g><g
           transform="translate(1621.3674,1498.9526)"
           id="g72"><path
             id="path74"
             style="fill:none;stroke:#000000;stroke-width:8;stroke-linecap:butt;stroke-linejoin:miter;stroke-miterlimit:10;stroke-dasharray:none;stroke-opacity:1"
             d="m 0,0 c -15.437,1.322 -25.431,-4.244 -32.375,-15.21 -4.079,-6.443 -7.897,-13.173 -10.854,-20.187 -19.365,-45.947 -38.47,-92.003 -57.607,-138.045 -0.46,-1.105 -0.299,-2.468 -0.406,-3.5 1.035,-0.568 1.583,-1.127 2.139,-1.134 9.31,-0.128 18.621,-0.252 27.932,-0.242 8.294,0.009 8.353,0.058 11.463,7.858 10.588,26.557 21.545,52.977 31.569,79.746 8.97,23.953 17.069,48.239 25.144,72.514 C -1.175,-12.73 -1.05,-6.697 0,0 Z m -184.7,-385.283 c -1.198,-2.367 -2.233,-4.068 -2.958,-5.893 -32.825,-82.644 -65.747,-165.25 -98.306,-247.999 -5.474,-13.912 -9.634,-28.368 -13.853,-42.734 -1.549,-5.274 -1.509,-11.015 -2.257,-17.048 11.859,-3.121 21.882,-0.712 29.989,6.114 7.273,6.123 14.553,13.2 19.132,21.368 11.382,20.301 22.426,40.959 31.443,62.384 20.668,49.11 40.05,98.762 59.946,148.198 3.358,8.342 6.725,16.68 10.001,25.054 3.305,8.452 9.631,12.408 18.494,12.677 2.665,0.081 5.333,0.048 8,0.048 73.999,0.002 147.999,0.008 221.999,-0.014 3.659,-0.001 7.384,0.149 10.965,-0.452 10.971,-1.843 16.537,-10.515 13.434,-21.236 -1.753,-6.055 -4.263,-11.904 -6.611,-17.774 C 92.331,-518.558 70.574,-574.772 44.82,-629.352 2.361,-719.334 -60.152,-792.623 -139.578,-851.744 c -54.474,-40.548 -116.066,-63.195 -183.626,-69.601 -45.804,-4.344 -91.189,-2.821 -135.7,10.217 -37.474,10.977 -69.372,30.301 -93.415,61.682 -17.394,22.702 -24.869,49.102 -29.028,76.712 -6.158,40.894 -1.23,81.021 8.815,120.783 12.589,49.834 29.901,98.092 48.834,145.777 45.965,115.767 91.93,231.535 138.422,347.091 24.913,61.922 54.227,121.688 91.262,177.449 39.264,59.116 87.467,109.109 148.692,145.727 71.672,42.866 149.006,63.819 232.778,58.713 28.736,-1.752 56.951,-6.852 83.72,-17.757 50.594,-20.612 82.733,-57.872 97.775,-110.195 11.04,-38.4 9.562,-77.068 2.598,-115.853 -11.945,-66.535 -33.454,-130.232 -57.903,-192.996 -20.067,-51.517 -40.777,-102.784 -61.233,-154.15 -6.02,-15.117 -8.963,-17.122 -25.307,-17.125 -100,-0.022 -199.999,-0.012 -299.999,-0.013 -3.953,0 -7.906,0 -11.807,0 z" /></g><g
           transform="translate(4730.1973,1498.1848)"
           id="g76"><path
             id="path78"
             style="fill:#f86b28;fill-opacity:1;fill-rule:nonzero;stroke:none"
             d="m 0,0 c -9.715,2.748 -17.135,-0.087 -23.07,-5.706 -5,-4.735 -9.844,-10.258 -12.844,-16.372 -11.142,-22.703 -22.555,-45.368 -31.97,-68.808 -56.353,-140.307 -112.199,-280.817 -168.165,-421.279 -15.161,-38.052 -30.355,-76.094 -45.117,-114.302 -6.6,-17.084 -12.365,-34.525 -13.867,-52.991 -0.349,-4.295 -0.614,-8.68 -0.142,-12.938 0.698,-6.312 3.293,-8.563 9.413,-6.772 5.917,1.731 12.29,4.216 16.691,8.285 6.752,6.244 12.871,13.583 17.708,21.415 17.74,28.727 30.679,59.836 43.28,91.037 17.71,43.848 35.078,87.835 52.573,131.769 6.336,15.911 9.727,18.296 26.71,18.299 70.33,0.013 140.661,0.018 210.992,-0.03 3.639,-0.003 7.37,-0.1 10.899,-0.876 9.852,-2.167 14.39,-9.222 12.577,-19.221 -0.471,-2.599 -1.307,-5.188 -2.356,-7.617 -24.946,-57.785 -49.445,-115.77 -75.079,-173.249 -23.431,-52.543 -57.442,-98.183 -95.471,-140.996 -32.27,-36.328 -68.146,-68.433 -109.285,-94.502 -60.706,-38.467 -127.09,-57.079 -198.817,-57.741 -31.832,-0.294 -63.214,2.433 -94.029,10.68 -63.903,17.1 -101.183,58.488 -112.863,123.389 -5.943,33.019 -3.069,65.737 3.124,98.323 12.236,64.379 32.65,126.359 56.724,187.102 50.311,126.94 101.063,253.706 152.135,380.341 16.079,39.868 35.56,78.181 56.438,115.805 35.348,63.693 84.141,114.512 144.429,155.009 48.367,32.49 99.825,57.383 157.329,68.711 50.667,9.98 101.302,11.698 151.475,-2.384 70.716,-19.849 112.722,-66.458 126.427,-138.478 5.571,-29.281 2.58,-58.416 -3.027,-87.377 -11.881,-61.372 -31.829,-120.319 -53.818,-178.646 -3.759,-9.972 -7.87,-19.814 -11.455,-29.846 -3.373,-9.44 -10.12,-13.597 -19.751,-13.864 -1.999,-0.055 -4,-0.023 -6,-0.023 -73.997,0 -147.995,-0.015 -221.992,0.039 -3.966,0.003 -8.038,0.107 -11.878,0.974 -11.21,2.53 -16.212,10.762 -12.379,21.645 5.197,14.752 11.298,29.185 16.977,43.768 16.073,41.27 32.285,82.486 48.07,123.865 3.545,9.291 5.876,19.088 8.177,28.791 C -0.119,-10.095 -0.378,-5.095 0,0" /></g><g
           transform="translate(4730.1973,1498.1848)"
           id="g80"><path
             id="path82"
             style="fill:none;stroke:#000000;stroke-width:8;stroke-linecap:butt;stroke-linejoin:miter;stroke-miterlimit:10;stroke-dasharray:none;stroke-opacity:1"
             d="m 0,0 c -9.715,2.748 -17.135,-0.087 -23.07,-5.706 -5,-4.735 -9.844,-10.258 -12.844,-16.372 -11.142,-22.703 -22.555,-45.368 -31.97,-68.808 -56.353,-140.307 -112.199,-280.817 -168.165,-421.279 -15.161,-38.052 -30.355,-76.094 -45.117,-114.302 -6.6,-17.084 -12.365,-34.525 -13.867,-52.991 -0.349,-4.295 -0.614,-8.68 -0.142,-12.938 0.698,-6.312 3.293,-8.563 9.413,-6.772 5.917,1.731 12.29,4.216 16.691,8.285 6.752,6.244 12.871,13.583 17.708,21.415 17.74,28.727 30.679,59.836 43.28,91.037 17.71,43.848 35.078,87.835 52.573,131.769 6.336,15.911 9.727,18.296 26.71,18.299 70.33,0.013 140.661,0.018 210.992,-0.03 3.639,-0.003 7.37,-0.1 10.899,-0.876 9.852,-2.167 14.39,-9.222 12.577,-19.221 -0.471,-2.599 -1.307,-5.188 -2.356,-7.617 -24.946,-57.785 -49.445,-115.77 -75.079,-173.249 -23.431,-52.543 -57.442,-98.183 -95.471,-140.996 -32.27,-36.328 -68.146,-68.433 -109.285,-94.502 -60.706,-38.467 -127.09,-57.079 -198.817,-57.741 -31.832,-0.294 -63.214,2.433 -94.029,10.68 -63.903,17.1 -101.183,58.488 -112.863,123.389 -5.943,33.019 -3.069,65.737 3.124,98.323 12.236,64.379 32.65,126.359 56.724,187.102 50.311,126.94 101.063,253.706 152.135,380.341 16.079,39.868 35.56,78.181 56.438,115.805 35.348,63.693 84.141,114.512 144.429,155.009 48.367,32.49 99.825,57.383 157.329,68.711 50.667,9.98 101.302,11.698 151.475,-2.384 70.716,-19.849 112.722,-66.458 126.427,-138.478 5.571,-29.281 2.58,-58.416 -3.027,-87.377 -11.881,-61.372 -31.829,-120.319 -53.818,-178.646 -3.759,-9.972 -7.87,-19.814 -11.455,-29.846 -3.373,-9.44 -10.12,-13.597 -19.751,-13.864 -1.999,-0.055 -4,-0.023 -6,-0.023 -73.997,0 -147.995,-0.015 -221.992,0.039 -3.966,0.003 -8.038,0.107 -11.878,0.974 -11.21,2.53 -16.212,10.762 -12.379,21.645 5.197,14.752 11.298,29.185 16.977,43.768 16.073,41.27 32.285,82.486 48.07,123.865 3.545,9.291 5.876,19.088 8.177,28.791 C -0.119,-10.095 -0.378,-5.095 0,0 Z" /></g><g
           transform="translate(5280.8027,1702.6038)"
           id="g84"><path
             id="path86"
             style="fill:#f86b28;fill-opacity:1;fill-rule:nonzero;stroke:none"
             d="m 0,0 c 40.661,0.001 81.323,0.012 121.984,-0.018 3.659,-0.003 7.364,0.052 10.967,-0.475 9.86,-1.444 15.688,-9.814 13.555,-19.511 -0.78,-3.551 -2.189,-6.988 -3.542,-10.384 -74.201,-186.238 -148.426,-372.466 -222.65,-558.695 -66.207,-166.115 -132.415,-332.229 -198.617,-498.346 -7.763,-19.479 -9.753,-20.841 -30.987,-20.841 -80.322,-10e-4 -160.645,-0.022 -240.967,0.055 -4.618,0 -9.387,0.214 -13.821,1.356 -9.634,2.483 -14.118,10.283 -11.339,19.831 2.041,7.008 4.882,13.797 7.591,20.594 86.412,216.852 172.852,433.692 259.285,650.536 52.527,131.781 105.05,263.565 157.574,395.347 7.879,19.768 8.972,20.537 29.983,20.545 C -80.656,0.01 -40.328,-0.001 0,0" /></g><g
           transform="translate(5280.8027,1702.6038)"
           id="g88"><path
             id="path90"
             style="fill:none;stroke:#000000;stroke-width:8;stroke-linecap:butt;stroke-linejoin:miter;stroke-miterlimit:10;stroke-dasharray:none;stroke-opacity:1"
             d="m 0,0 c 40.661,0.001 81.323,0.012 121.984,-0.018 3.659,-0.003 7.364,0.052 10.967,-0.475 9.86,-1.444 15.688,-9.814 13.555,-19.511 -0.78,-3.551 -2.189,-6.988 -3.542,-10.384 -74.201,-186.238 -148.426,-372.466 -222.65,-558.695 -66.207,-166.115 -132.415,-332.229 -198.617,-498.346 -7.763,-19.479 -9.753,-20.841 -30.987,-20.841 -80.322,-10e-4 -160.645,-0.022 -240.967,0.055 -4.618,0 -9.387,0.214 -13.821,1.356 -9.634,2.483 -14.118,10.283 -11.339,19.831 2.041,7.008 4.882,13.797 7.591,20.594 86.412,216.852 172.852,433.692 259.285,650.536 52.527,131.781 105.05,263.565 157.574,395.347 7.879,19.768 8.972,20.537 29.983,20.545 C -80.656,0.01 -40.328,-0.001 0,0 Z" /></g><g
           transform="translate(762.7909,1636.752)"
           id="g92"><path
             id="path94"
             style="fill:#000000;fill-opacity:1;fill-rule:nonzero;stroke:none"
             d="m 0,0 c -3.723,3.514 -6.386,5.896 -8.903,8.423 -47.5,47.697 -94.938,95.457 -142.523,143.07 -6.579,6.582 -13.581,12.824 -20.912,18.551 -7.303,5.707 -11.772,3.994 -15.002,-4.67 -2.649,-7.103 -1.816,-13.901 2.426,-19.999 3.602,-5.177 7.448,-10.295 11.851,-14.787 36.85,-37.603 73.835,-75.074 110.818,-112.545 16.369,-16.586 32.829,-33.084 49.919,-50.298 -11.902,-31.3 -23.783,-62.543 -36.205,-95.21 -3.898,3.841 -6.689,6.544 -9.431,9.297 -48.448,48.633 -96.865,97.298 -145.369,145.876 -5.408,5.415 -11.097,10.597 -17.019,15.441 -7.608,6.223 -12.366,4.671 -15.226,-4.797 -2.811,-9.306 -0.686,-17.91 5.231,-25.367 3.922,-4.942 8.429,-9.445 12.885,-13.935 49.766,-50.144 99.56,-100.261 149.411,-150.32 2.34,-2.349 5.292,-4.088 8.112,-6.226 -12.485,-32.775 -24.389,-64.022 -36.868,-96.779 -72.519,72.964 -143.825,144.708 -215.465,216.788 12.127,31.913 24.055,63.303 36.634,96.404 6.133,-6.289 11.489,-11.78 18.165,-18.626 -1.66,8.158 -3.209,14.474 -4.203,20.876 -4.04,26.019 -1.636,51.169 10.839,74.799 6.128,11.608 14.718,20.65 27.685,24.434 4.357,1.271 9.007,1.539 13.315,2.232 -1.974,13.602 -4.495,26.638 -5.632,39.794 -1.823,21.083 2.55,41.195 12.923,59.659 3.365,5.989 7.845,11.714 12.958,16.282 10.766,9.619 24.077,10.584 35.867,2.325 9.507,-6.66 18.693,-14.052 26.905,-22.239 C -73.95,205.752 -21.411,152.726 31.305,99.877 34.402,96.773 35.928,94.171 34.099,89.466 22.76,60.301 11.769,31 0,0" /></g><g
           transform="translate(5699.9258,544.9052)"
           id="g96"><path
             id="path98"
             style="fill:#000000;fill-opacity:1;fill-rule:nonzero;stroke:none"
             d="m 0,0 v -21.437 c -0.272,-0.283 -0.494,-0.531 -0.734,-0.759 -0.238,-0.225 -0.495,-0.618 -0.744,-0.618 -995.277,-0.133 -1990.554,-0.239 -2985.831,-0.322 -1.266,0 -2.533,0.331 -4.338,0.583 V 0 Z" /></g><g
           transform="translate(5375,1939.8376)"
           id="g100"><path
             id="path102"
             style="fill:#f86b28;fill-opacity:1;fill-rule:nonzero;stroke:none"
             d="m 0,0 c 40.993,-0.002 81.987,0.025 122.98,-0.046 3.963,-0.006 8.041,-0.128 11.864,-1.04 9.383,-2.239 13.741,-9.113 12.014,-18.66 -0.586,-3.238 -1.856,-6.385 -3.08,-9.468 -21.028,-52.919 -42.253,-105.761 -63.031,-158.778 -4.269,-10.891 -11.442,-15.56 -22.768,-15.549 -83.986,0.076 -167.973,0.025 -251.959,0.1 -3.277,0.003 -6.666,0.507 -9.807,1.438 -8.251,2.445 -12.491,9.056 -11.223,17.528 0.486,3.248 1.656,6.448 2.879,9.525 21.279,53.531 42.782,106.973 63.798,160.607 4.234,10.807 11.611,14.423 22.354,14.393 C -83.986,-0.067 -41.993,0.002 0,0" /></g><g
           transform="translate(5375,1939.8376)"
           id="g104"><path
             id="path106"
             style="fill:none;stroke:#000000;stroke-width:8;stroke-linecap:butt;stroke-linejoin:miter;stroke-miterlimit:10;stroke-dasharray:none;stroke-opacity:1"
             d="m 0,0 c 40.993,-0.002 81.987,0.025 122.98,-0.046 3.963,-0.006 8.041,-0.128 11.864,-1.04 9.383,-2.239 13.741,-9.113 12.014,-18.66 -0.586,-3.238 -1.856,-6.385 -3.08,-9.468 -21.028,-52.919 -42.253,-105.761 -63.031,-158.778 -4.269,-10.891 -11.442,-15.56 -22.768,-15.549 -83.986,0.076 -167.973,0.025 -251.959,0.1 -3.277,0.003 -6.666,0.507 -9.807,1.438 -8.251,2.445 -12.491,9.056 -11.223,17.528 0.486,3.248 1.656,6.448 2.879,9.525 21.279,53.531 42.782,106.973 63.798,160.607 4.234,10.807 11.611,14.423 22.354,14.393 C -83.986,-0.067 -41.993,0.002 0,0 Z" /></g><g
           transform="translate(513.4807,1351.4723)"
           id="g108"><path
             id="path110"
             style="fill:#000000;fill-opacity:1;fill-rule:nonzero;stroke:none"
             d="m 0,0 c 1.21,-9.571 2.122,-17.368 3.195,-25.142 1.781,-12.905 7.017,-24.288 15.909,-33.788 7.498,-8.01 15.324,-15.717 23.122,-23.439 1.874,-1.856 4.106,-3.418 6.362,-4.808 5.746,-3.543 9.157,-2.81 12.292,2.964 4.27,7.864 5.126,15.819 -0.801,23.387 -2.666,3.405 -5.296,6.88 -8.313,9.961 C 36.161,-34.926 20.444,-19.096 4.733,-3.262 3.887,-2.41 2.733,-1.863 0,0 m -41.187,0.583 c -11.658,-30.592 -23.11,-60.642 -34.72,-91.107 -39.071,32.347 -63.25,70.775 -61.214,122.69 1.606,40.916 13.684,78.471 33.816,113.696 5.822,10.187 13.176,19.247 23.578,25.323 14.023,8.19 28.199,8.676 41.144,-1.422 13.367,-10.428 26.491,-21.349 38.542,-33.249 C 44.992,92.043 89.529,47.07 134.303,2.337 c 3.237,-3.234 5.457,-6.011 3.42,-11.218 -11.158,-28.519 -21.947,-57.181 -32.896,-85.781 -0.32,-0.836 -1.016,-1.527 -2.076,-3.072 -4.972,4.755 -9.699,9.277 -14.427,13.799 l -1.591,-0.611 c 0.901,-3.52 1.819,-7.037 2.7,-10.562 6.665,-26.698 3.771,-52.425 -9.505,-76.422 -4.57,-8.261 -11.399,-15.461 -18.035,-22.337 -7.031,-7.284 -16.229,-7.905 -24.962,-3.584 -7.084,3.504 -14.189,7.693 -19.932,13.034 -12.911,12.008 -25.293,24.629 -37.313,37.538 -14.228,15.28 -21.512,33.634 -20.536,54.646 1.096,23.61 2.794,47.193 4.29,70.785 0.801,12.63 1.587,25.264 2.637,37.875 0.943,11.312 -2.121,21.156 -10.257,29.102 -8.085,7.896 -16.032,16.03 -24.833,23.067 -7.822,6.255 -12.976,3.949 -16.35,-5.591 -2.57,-7.265 -1.611,-13.876 3.516,-19.553 8.476,-9.385 17.14,-18.603 25.823,-27.798 4.767,-5.047 9.736,-9.903 14.837,-15.071" /></g><g
           transform="translate(370.6029,1114.1006)"
           id="g112"><path
             id="path114"
             style="fill:#000000;fill-opacity:1;fill-rule:nonzero;stroke:none"
             d="m 0,0 c 3.073,8.041 5.212,14.603 8.077,20.83 2.284,4.964 1.834,8.536 -2.347,12.307 -6.422,5.793 -12.251,12.238 -18.536,18.19 -3.616,3.425 -7.39,6.792 -11.529,9.526 -5.658,3.737 -9.039,2.52 -11.719,-3.743 -3.223,-7.532 -3.604,-14.957 2.262,-21.508 7.104,-7.933 14.325,-15.762 21.611,-23.527 C -8.627,8.288 -4.809,4.748 0,0 M 83.608,91.272 C 67.415,48.657 51.578,6.976 35.847,-34.426 c 0.356,-0.998 0.404,-1.791 0.824,-2.214 18.074,-18.195 36.174,-36.365 54.299,-54.51 1.171,-1.172 2.519,-2.184 3.859,-3.169 8.065,-5.922 12.327,-4.752 15.758,4.446 3.11,8.339 2.74,16.631 -2.569,23.828 -5.516,7.476 -11.584,14.6 -17.927,21.396 -9.059,9.706 -18.589,18.972 -28.259,28.772 11.716,30.761 23.27,61.099 34.948,91.76 44.096,-35.003 68.59,-78.602 67.124,-134.842 -0.988,-37.883 -12.922,-72.589 -32.517,-104.68 -4.626,-7.577 -10.68,-14.554 -17.144,-20.682 -15.332,-14.538 -35.072,-16.852 -53.395,-6.216 -7.997,4.642 -15.744,10.241 -22.323,16.709 -29.457,28.964 -58.892,57.978 -87.48,87.794 -23.446,24.452 -38.302,53.495 -41.018,87.901 -1.964,24.88 1.107,49.242 8.23,73.062 5.746,19.214 13.385,37.655 24.665,54.4 6.014,8.929 13.119,16.786 22.273,22.633 14.345,9.163 29.513,11.019 44.509,2.706 10.408,-5.769 20.567,-12.517 29.444,-20.397 C 54.32,120.804 68.4,106.106 83.608,91.272" /></g><g
           transform="translate(266.917,518.3264)"
           id="g116"><path
             id="path118"
             style="fill:#000000;fill-opacity:1;fill-rule:nonzero;stroke:none"
             d="m 0,0 v 22.673 h 2084.252 c 2.115,-7.358 1.067,-14.76 0.772,-22.673 z" /></g><g
           transform="translate(202.7528,1120.7268)"
           id="g120"><path
             id="path122"
             style="fill:#000000;fill-opacity:1;fill-rule:nonzero;stroke:none"
             d="m 0,0 c 18.003,-17.541 35.338,-34.43 53.177,-51.811 -7.341,-19.436 -14.84,-39.293 -22.396,-59.299 2.346,-2.545 4.284,-4.791 6.369,-6.89 65.499,-65.942 130.946,-131.935 196.647,-197.675 5.256,-5.258 6.308,-9.481 3.561,-16.403 -11.051,-27.845 -21.475,-55.938 -32.155,-83.931 -0.93,-2.438 -2.035,-4.809 -3.756,-8.849 -70.197,70.383 -139.33,140.337 -209.742,210.831 -7.841,-20.306 -15.226,-39.434 -22.996,-59.556 -3.295,3.07 -5.76,5.225 -8.065,7.539 -12.225,12.273 -24.046,24.981 -36.763,36.719 -6.36,5.87 -7.393,10.905 -4.277,18.951 23.203,59.912 45.94,120.005 68.824,180.041 C -7.677,-20.113 -3.775,-9.896 0,0" /></g><g
           transform="translate(1424.2429,1778.4005)"
           id="g124"><path
             id="path126"
             style="fill:#000000;fill-opacity:1;fill-rule:nonzero;stroke:none"
             d="m 0,0 v 22.645 h 1495.291 c 0.293,-1.976 0.706,-3.549 0.729,-5.128 0.083,-5.615 0.032,-11.231 0.032,-17.517 z" /></g><path
           id="path128"
           style="fill:#000000;fill-opacity:1;fill-rule:nonzero;stroke:none"
           d="M 3832.284,1801.062 H 5121.733 V 1778.37 H 3832.284 Z" /><g
           transform="translate(6785.0859,1800.9492)"
           id="g130"><path
             id="path132"
             style="fill:#000000;fill-opacity:1;fill-rule:nonzero;stroke:none"
             d="m 0,0 v -22.601 h -1274.163 c -0.201,3.365 -0.468,6.275 -0.527,9.19 -0.086,4.252 -0.023,8.508 -0.023,13.411 z" /></g><g
           transform="translate(465.1793,1039.5476)"
           id="g134"><path
             id="path136"
             style="fill:#000000;fill-opacity:1;fill-rule:nonzero;stroke:none"
             d="m 0,0 c -7.524,6.87 -15.06,13.726 -22.566,20.616 -2.368,2.175 -4.012,4.554 -1.403,7.674 C -16.75,24.967 -9.815,17.414 0,0" /></g><g
           transform="translate(651.2474,1550.7886)"
           id="g138"><path
             id="path140"
             style="fill:#000000;fill-opacity:1;fill-rule:nonzero;stroke:none"
             d="M 0,0 C -6.289,2.74 -8.906,5.229 -13.168,12.492 -8.51,13.854 -7.06,9.838 -4.832,7.783 -2.679,5.798 0.52,4.129 0,0" /></g><g
           transform="translate(542.1355,1305.5725)"
           id="g142"><path
             id="path144"
             style="fill:#000000;fill-opacity:1;fill-rule:nonzero;stroke:none"
             d="M 0,0 11.714,-13.741 C 11.458,-14 11.203,-14.258 10.947,-14.516 6.628,-10.315 2.309,-6.114 -2.01,-1.913 -1.34,-1.275 -0.67,-0.638 0,0" /></g></g></g></g></svg>