<?xml version="1.0" standalone="no"?>
<!DOCTYPE svg PUBLIC "-//W3C//DTD SVG 1.1//EN" "http://www.w3.org/Graphics/SVG/1.1/DTD/svg11.dtd">
<svg xmlns:dc="http://purl.org/dc/elements/1.1/" xmlns:cc="http://creativecommons.org/ns#" xmlns:rdf="http://www.w3.org/1999/02/22-rdf-syntax-ns#" xmlns:svg="http://www.w3.org/2000/svg" xmlns="http://www.w3.org/2000/svg" viewBox="0 0 1517.5867 861.33331" height="861.3333129882812" width="1517.586669921875" xml:space="preserve" id="svg2" version="1.1"><metadata id="metadata8"><rdf:RDF><cc:Work rdf:about=""><dc:format>image/svg+xml</dc:format><dc:type rdf:resource="http://purl.org/dc/dcmitype/StillImage"/></cc:Work></rdf:RDF></metadata><defs id="defs6"><clipPath id="clipPath18" clipPathUnits="userSpaceOnUse"><path id="path16" d="M 0,646 H 1138.188 V 0 H 0 Z"/></clipPath></defs><g transform="matrix(1.3333333,0,0,-1.3333333,0,861.33333)" id="g10"><g id="g12"><g clip-path="url(#clipPath18)" id="g14"><g transform="translate(910.6035,130.6367)" id="g20"><path id="path22" style="fill:#171413;fill-opacity:1;fill-rule:nonzero;stroke:none" d="m 0,0 c -20.041,0 -38.764,-0.048 -57.486,0.041 -3.63,0.018 -2.879,-2.392 -2.882,-4.41 -0.025,-20.255 -0.019,-40.509 0.005,-60.763 10e-4,-0.722 -0.408,-1.676 1.026,-2.225 C -39.912,-45.307 -20.413,-23.173 0,0 m -60.383,443.754 c 0,-23.025 0.16,-44.604 -0.12,-66.176 -0.063,-4.954 1.564,-6.161 6.211,-6.117 13.96,0.135 27.932,0.32 41.872,-0.927 5.483,-0.491 10.996,-0.668 17.519,-1.048 -21.976,24.926 -43.248,49.053 -65.482,74.268 M -627.562,20.094 c 35.085,0 69.536,0.03 103.987,-0.039 4.098,-0.009 2.725,1.946 1.866,4.013 -16.199,38.998 -32.373,78.007 -48.596,116.995 -1.142,2.747 -1.802,5.781 -4.069,8.341 -17.772,-43.205 -35.393,-86.046 -53.188,-129.31 m -174.906,61.732 c 0.253,-0.053 0.505,-0.106 0.758,-0.159 0.363,0.662 0.772,1.304 1.083,1.99 28.352,62.568 56.666,125.154 85.105,187.682 2.049,4.507 -0.448,4.076 -3.341,4.073 -26.114,-0.032 -52.229,-0.158 -78.341,0.096 -4.599,0.045 -5.367,-1.355 -5.358,-5.564 0.137,-61.311 0.094,-122.623 0.094,-183.934 z m 344.991,55.542 c 1.124,2.495 1.845,3.98 2.473,5.504 19.365,46.999 38.758,93.987 58.009,141.033 1.484,3.626 3.425,5.011 7.374,4.927 11.479,-0.245 22.969,0.001 34.452,-0.156 2.858,-0.04 4.494,0.715 5.693,3.446 8.728,19.871 17.548,39.702 26.48,59.482 1.427,3.16 0.894,3.889 -2.535,3.843 -12.149,-0.162 -24.303,-0.182 -36.45,0.016 -3.285,0.054 -4.869,-0.864 -6.262,-3.997 -10.577,-23.767 -21.504,-47.379 -32.076,-71.149 -1.703,-3.83 -3.901,-5.003 -7.928,-4.987 -33.621,0.13 -67.244,-0.014 -100.866,0.155 -4.804,0.024 -4.947,-1.209 -3.287,-5.169 10.303,-24.586 20.39,-49.263 30.554,-73.907 8.015,-19.43 16.038,-38.857 24.369,-59.041 M -311.112,20.093 c 46.04,0 91.29,0.032 136.54,-0.063 3.511,-0.008 3.805,1.174 2.936,4.098 -2.637,8.871 -5.062,17.805 -7.614,26.701 -6.924,24.149 -13.874,48.29 -20.808,72.436 -4.093,14.255 -14.09,21.31 -28.279,23.668 -7.111,1.181 -14.234,0.856 -21.349,1.276 -3.419,0.203 -4.991,-1.072 -6.307,-4.072 -9.111,-20.764 -18.391,-41.454 -27.609,-62.171 -9.076,-20.401 -18.143,-40.806 -27.51,-61.873 M 10.513,11.915 c 10.743,12.174 20.754,23.501 30.746,34.844 40.116,45.543 80.17,91.141 120.449,136.539 3.163,3.566 3.049,5.33 0.013,8.713 -16.884,18.806 -33.499,37.852 -50.221,56.803 -6.35,7.197 -12.736,14.36 -19.366,21.83 -6.787,-16.561 -15.863,-30.935 -27.738,-43.475 -23.369,-24.682 -52.324,-40.518 -83.77,-52.256 -14.024,-5.235 -28.683,-8.305 -44.128,-11.428 8.025,-3.578 16.081,-5.413 22.037,-10.876 13.11,-12.023 22.528,-26.744 27.56,-43.675 C -8.633,91.196 -4.822,73.026 -0.339,55.055 3.173,40.979 6.737,26.917 10.513,11.915 m -868.558,269.578 h 5.626 c 46.44,-10e-4 92.881,-10e-4 139.322,-0.005 7.505,0 8.278,-1.236 5.18,-8.064 -39.765,-87.653 -79.527,-175.306 -119.234,-262.985 -0.566,-1.249 -1.893,-2.462 -0.96,-4.346 28.522,0 57.145,0.036 85.768,-0.064 2.47,-0.008 3.012,1.399 3.715,3.102 15.646,37.899 31.327,75.785 46.951,113.694 22.111,53.653 44.183,107.321 66.262,160.987 1.182,2.872 2.404,5.051 6.326,5.032 31.626,-0.157 63.252,-0.11 94.879,-0.054 2.836,0.004 4.883,-0.702 5.632,-3.673 0.708,-2.806 2.346,-3.724 5.388,-3.713 34.289,0.129 68.579,0.125 102.868,0.004 3,-0.01 4.271,1.063 5.436,3.661 11.234,25.05 22.608,50.036 33.94,75.041 2.561,5.652 2.557,5.652 -3.422,5.652 -91.55,0 -183.1,0 -274.65,0 -55.429,0 -110.858,-0.037 -166.287,0.086 -3.534,0.008 -5.116,-1.066 -6.537,-4.304 -7.448,-16.962 -15.214,-33.785 -22.868,-50.656 -4.35,-9.587 -8.699,-19.175 -13.335,-29.395 m 560.733,1.158 h -4.806 c -27.968,-0.002 -55.937,-0.103 -83.903,0.108 -3.879,0.03 -5.386,-1.372 -6.743,-4.685 -19.984,-48.793 -40.09,-97.536 -60.174,-146.288 -0.504,-1.222 -0.953,-2.499 -1.666,-3.595 -1.694,-2.607 -3.674,-2.667 -5.435,-0.108 -0.828,1.202 -1.276,2.673 -1.844,4.044 -20.161,48.733 -40.349,97.456 -60.395,146.236 -1.317,3.203 -2.812,4.397 -6.394,4.376 -28.633,-0.169 -57.267,-0.159 -85.9,-0.007 -3.495,0.019 -5.03,-1.011 -6.379,-4.294 -35.137,-85.485 -70.414,-170.914 -105.666,-256.353 -2.124,-5.146 -4.246,-10.292 -6.438,-15.606 1.039,-0.2 1.503,-0.367 1.968,-0.367 29.299,-0.015 58.599,0.044 87.898,-0.11 3.161,-0.017 3.728,1.686 4.639,3.898 16.551,40.205 33.155,80.389 49.747,120.577 3.72,9.01 7.417,18.031 11.172,27.028 0.693,1.659 1.354,3.526 3.71,3.438 2.041,-0.077 2.732,-1.589 3.325,-3.203 0.285,-0.775 0.648,-1.521 0.965,-2.285 19.985,-48.09 40.023,-96.158 59.85,-144.313 1.655,-4.018 3.625,-5.205 7.927,-5.171 28.631,0.228 57.266,0.193 85.899,0.023 3.583,-0.021 5.005,1.163 6.328,4.387 31.145,75.869 62.417,151.685 93.687,227.502 6.04,14.645 12.169,29.253 18.628,44.768 m -47.033,6.108 c 16.414,0 32.211,0.008 48.008,-0.004 6.809,-0.005 7.69,-1.303 5.101,-7.578 -33.48,-81.151 -66.968,-162.299 -100.451,-243.448 -4.27,-10.347 -8.523,-20.701 -13.022,-31.629 h 5.538 c 23.305,-0.003 46.611,0.086 69.915,-0.102 3.841,-0.031 5.695,0.962 7.332,4.67 20.438,46.285 41.153,92.449 61.643,138.711 1.659,3.744 3.677,5.419 7.83,5.139 6.625,-0.447 13.318,-0.077 19.915,-0.733 18.409,-1.832 32.629,-9.574 38.391,-28.53 0.673,-2.212 1.46,-4.391 2.091,-6.614 10.286,-36.268 20.583,-72.533 30.769,-108.828 0.726,-2.589 1.505,-3.805 4.555,-3.799 52.932,0.109 105.867,0.098 158.8,0.021 2.948,-0.004 3.475,0.471 2.7,3.507 -7.076,27.732 -14.508,55.393 -20.675,83.33 -3.917,17.749 -11.18,33.467 -22.226,47.689 -3.843,4.948 -8.396,8.843 -14.101,11.531 -7.824,3.684 -16.003,6.3 -24.272,8.706 -1.956,0.569 -4.065,1.153 -3.829,3.763 0.234,2.579 2.491,2.809 4.44,3.171 3.915,0.727 7.841,1.393 11.767,2.06 39.064,6.638 74.825,21.068 106.282,45.4 22.789,17.629 39.165,39.852 47.646,67.631 9.029,29.575 -1.085,53.9 -28.605,67.747 -14.765,7.43 -30.931,9.746 -47.069,11.725 -25.115,3.08 -50.399,3.386 -75.656,3.426 -81.402,0.126 -162.804,0.018 -244.206,0.131 -3.428,0.004 -4.97,-1.166 -6.264,-4.144 -6.401,-14.725 -13.008,-29.36 -19.53,-44.032 -4.216,-9.484 -8.412,-18.978 -12.817,-28.917 m -522.072,-10.185 c 8.943,19.447 17.904,38.886 26.822,58.344 4.616,10.074 9.304,20.12 13.652,30.31 1.567,3.671 3.852,4.901 7.654,4.818 8.153,-0.178 16.312,-0.056 24.469,-0.056 141.489,10e-4 282.979,0.002 424.468,0.003 0.832,0 1.665,0.017 2.498,-0.003 6.146,-0.149 7.125,-1.646 4.734,-7.228 -0.375,-0.875 -0.735,-1.757 -1.401,-3.349 h 4.746 c 10.487,0 20.99,0.354 31.454,-0.136 6.107,-0.286 10.602,0.543 11.967,7.373 0.511,2.564 2.606,3.219 4.908,3.321 1.329,0.059 2.663,0.02 3.994,0.02 77.736,0 155.473,-10e-4 233.208,-10e-4 6.713,0 6.714,10e-4 6.714,6.474 0.001,26.763 0,53.525 0,81.383 3.749,-4.158 6.909,-7.589 9.991,-11.09 22.853,-25.96 45.735,-51.894 68.478,-77.949 2.84,-3.254 6.486,-2.861 9.946,-3.367 16.317,-2.386 32.417,-5.579 46.903,-13.929 24.696,-14.235 35.419,-39.104 28.057,-67.036 -1.896,-7.189 -0.581,-11.549 4.166,-16.82 23.367,-25.946 46.287,-52.295 69.487,-78.391 2.403,-2.703 2.665,-4.178 0.065,-7.116 C 118.665,125.496 66.909,66.717 15.141,7.951 13.855,6.492 12.266,5.181 12.496,2.829 12.563,2.138 12.048,0.954 11.483,0.701 2.069,-3.513 -2.54,-12.606 -8.991,-19.708 c -18.336,-20.183 -36.166,-40.822 -54.2,-61.279 -0.862,-0.978 -1.762,-1.922 -2.758,-3.006 -1.042,1.983 -0.552,3.834 -0.555,5.6 -0.04,24.444 -0.137,48.888 0.078,73.33 0.038,4.242 -1.224,5.164 -5.273,5.14 -29.295,-0.172 -58.593,-0.013 -87.889,-0.181 -4.128,-0.023 -5.846,1.383 -6.815,5.301 -2.179,8.802 -2.372,8.754 -11.699,8.754 -43.445,0 -86.891,-0.055 -130.336,0.093 -4.039,0.014 -6.706,-0.761 -7.636,-4.963 -1.682,-7.597 -6.328,-9.39 -14.015,-9.313 -38.443,0.38 -76.893,-0.018 -115.341,-0.045 -20.467,-0.015 -40.935,0.248 -61.402,0.181 -3.54,-0.011 -5.383,1.133 -6.705,4.412 -3.901,9.684 -4.022,9.635 -14.287,9.635 -32.459,0 -64.919,-0.055 -97.378,0.078 -3.651,0.016 -5.507,-0.908 -6.973,-4.504 -4.637,-11.37 -1.78,-9.438 -14.051,-9.519 -24.627,-0.164 -49.255,-0.294 -73.882,-0.282 -36.946,0.016 -73.892,0.165 -110.837,0.262 -6.278,0.017 -7.067,1.263 -4.414,7.116 8.462,18.669 16.93,37.336 25.457,55.976 0.991,2.167 1.434,4.312 1.432,6.694 -0.04,67.012 -0.061,134.024 0.047,201.036 0.006,3.569 -0.639,4.748 -4.528,4.681 -15.476,-0.269 -30.959,-0.075 -46.439,-0.16 -2.669,-0.015 -5.083,0.246 -7.027,2.247 z"/></g><g transform="translate(921.1162,142.5518)" id="g24"><path id="path26" style="fill:#f25b23;fill-opacity:1;fill-rule:nonzero;stroke:none" d="m 0,0 c -3.775,15.002 -7.34,29.064 -10.852,43.14 -4.483,17.971 -8.294,36.141 -13.566,53.879 -5.032,16.931 -14.45,31.652 -27.56,43.675 -5.956,5.463 -14.011,7.298 -22.037,10.876 15.446,3.123 30.104,6.193 44.128,11.428 31.447,11.738 60.402,27.574 83.771,52.256 11.874,12.54 20.95,26.914 27.737,43.475 6.63,-7.47 13.017,-14.633 19.366,-21.83 16.722,-18.951 33.337,-37.997 50.221,-56.803 3.036,-3.383 3.15,-5.147 -0.013,-8.713 C 110.916,125.985 70.862,80.387 30.746,34.844 20.754,23.501 10.743,12.174 0,0"/></g><g transform="translate(599.4912,150.7295)" id="g28"><path id="path30" style="fill:#f25b23;fill-opacity:1;fill-rule:nonzero;stroke:none" d="m 0,0 c 9.367,21.067 18.435,41.473 27.511,61.873 9.218,20.717 18.498,41.407 27.608,62.171 1.317,3 2.888,4.275 6.308,4.073 7.114,-0.421 14.237,-0.096 21.348,-1.277 14.189,-2.358 24.186,-9.413 28.28,-23.668 6.933,-24.146 13.883,-48.287 20.807,-72.436 2.552,-8.896 4.977,-17.83 7.615,-26.701 0.869,-2.924 0.575,-4.105 -2.937,-4.097 C 91.29,0.032 46.04,0 0,0"/></g><g transform="translate(453.127,268.0049)" id="g32"><path id="path34" style="fill:#f25b23;fill-opacity:1;fill-rule:nonzero;stroke:none" d="m 0,0 c -8.331,20.184 -16.354,39.61 -24.369,59.041 -10.165,24.644 -20.251,49.321 -30.555,73.907 -1.659,3.96 -1.516,5.193 3.288,5.169 33.621,-0.169 67.244,-0.025 100.865,-0.156 4.028,-0.015 6.225,1.158 7.928,4.988 10.572,23.77 21.499,47.382 32.076,71.149 1.394,3.132 2.978,4.051 6.262,3.997 12.148,-0.199 24.302,-0.178 36.45,-0.016 3.43,0.046 3.962,-0.683 2.535,-3.843 -8.931,-19.78 -17.751,-39.611 -26.479,-59.483 -1.199,-2.731 -2.835,-3.485 -5.693,-3.445 -11.484,0.157 -22.973,-0.089 -34.453,0.155 -3.949,0.085 -5.889,-1.3 -7.374,-4.926 C 41.23,99.491 21.838,52.503 2.473,5.503 1.845,3.98 1.124,2.495 0,0"/></g><g transform="translate(108.1353,212.4629)" id="g36"><path id="path38" style="fill:#f25b23;fill-opacity:1;fill-rule:nonzero;stroke:none" d="m 0,0 v 4.184 c 0,61.311 0.043,122.623 -0.093,183.934 -0.01,4.209 0.758,5.609 5.357,5.564 26.112,-0.254 52.227,-0.128 78.341,-0.097 2.893,0.004 5.391,0.435 3.341,-4.072 C 58.507,126.984 30.193,64.399 1.841,1.831 1.53,1.145 1.121,0.503 0.758,-0.16 0.505,-0.106 0.253,-0.053 0,0"/></g><g transform="translate(283.041,150.7305)" id="g40"><path id="path42" style="fill:#f25b23;fill-opacity:1;fill-rule:nonzero;stroke:none" d="m 0,0 c 17.795,43.265 35.417,86.105 53.188,129.311 2.268,-2.561 2.927,-5.595 4.07,-8.342 C 73.48,81.981 89.655,42.973 105.854,3.975 106.712,1.907 108.086,-0.048 103.987,-0.039 69.537,0.03 35.086,0 0,0"/></g><g transform="translate(850.2207,574.3911)" id="g44"><path id="path46" style="fill:#f25b23;fill-opacity:1;fill-rule:nonzero;stroke:none" d="m 0,0 c 22.233,-25.216 43.506,-49.343 65.481,-74.268 -6.522,0.38 -12.035,0.557 -17.518,1.047 -13.941,1.247 -27.912,1.062 -41.872,0.928 -4.648,-0.045 -6.275,1.163 -6.211,6.116 C 0.16,-44.604 0,-23.026 0,0"/></g><g transform="translate(910.6035,130.6367)" id="g48"><path id="path50" style="fill:#f25b23;fill-opacity:1;fill-rule:nonzero;stroke:none" d="m 0,0 c -20.413,-23.173 -39.912,-45.307 -59.337,-67.357 -1.434,0.549 -1.025,1.503 -1.026,2.225 -0.024,20.254 -0.03,40.508 -0.005,60.763 0.003,2.018 -0.748,4.428 2.882,4.41 C -38.764,-0.048 -20.041,0 0,0"/></g><g transform="translate(690.1475,354.125)" id="g52"><path id="path54" style="fill:#171413;fill-opacity:1;fill-rule:nonzero;stroke:none" d="m 0,0 c 31.017,0.989 61.15,-1.936 91.027,3.26 10.596,1.843 21.362,3 31.085,8.134 12.36,6.525 22.832,14.914 27.48,28.74 3.927,11.68 0.112,19.278 -11.541,23.351 -9.508,3.323 -19.47,4.313 -29.394,4.446 -24.942,0.335 -49.891,0.096 -74.838,0.25 -2.853,0.017 -4.117,-1.06 -5.152,-3.479 C 25.414,57.098 21.968,49.576 18.613,42.014 12.521,28.28 6.44,14.54 0,0 m 74.913,74.228 c 13.434,-0.321 30.082,0.793 46.663,-1.149 7.921,-0.928 15.743,-2.205 23.016,-5.718 9.883,-4.773 14.287,-13.897 12,-24.674 C 153.49,28.073 144.22,18.131 132.238,10.127 119.859,1.859 105.74,-0.542 91.422,-2.872 59.99,-7.986 28.356,-5.263 -3.187,-5.939 -7.712,-6.037 -8.658,-4.572 -6.853,-0.49 3.705,23.377 14.396,47.186 24.91,71.072 c 1.161,2.638 2.818,3.207 5.391,3.192 13.809,-0.076 27.62,-0.036 44.612,-0.036"/></g><g transform="translate(690.1475,354.125)" id="g56"><path id="path58" style="fill:#f25b23;fill-opacity:1;fill-rule:nonzero;stroke:none" d="m 0,0 c 6.44,14.54 12.521,28.28 18.613,42.014 3.355,7.562 6.801,15.084 10.054,22.688 1.035,2.419 2.299,3.496 5.152,3.479 24.947,-0.154 49.896,0.085 74.838,-0.25 9.924,-0.133 19.886,-1.123 29.394,-4.446 11.653,-4.073 15.468,-11.671 11.541,-23.351 -4.648,-13.826 -15.12,-22.215 -27.48,-28.74 C 112.389,6.26 101.623,5.103 91.027,3.26 61.15,-1.936 31.017,0.989 0,0"/></g></g></g></g></svg>